<mxfile host="Electron" modified="2024-04-07T23:13:03.916Z" agent="Mozilla/5.0 (Macintosh; Intel Mac OS X 10_15_7) AppleWebKit/537.36 (KHTML, like Gecko) draw.io/24.1.0 Chrome/120.0.6099.109 Electron/28.1.0 Safari/537.36" etag="GvCIzLDd1yuZ4s80FSSF" version="24.1.0" type="device">
  <diagram name="Page-1" id="HGFxIOH9xwv7jOHaXdA_">
    <mxGraphModel dx="2125" dy="1520" grid="1" gridSize="10" guides="1" tooltips="1" connect="1" arrows="1" fold="1" page="1" pageScale="1" pageWidth="850" pageHeight="1100" math="0" shadow="0">
      <root>
        <mxCell id="0" />
        <mxCell id="1" parent="0" />
        <mxCell id="xQaKevciG22setIpyIhR-101" value="" style="rounded=0;whiteSpace=wrap;html=1;dashed=1;strokeColor=default;" vertex="1" parent="1">
          <mxGeometry x="690" y="20" width="890" height="720" as="geometry" />
        </mxCell>
        <mxCell id="xQaKevciG22setIpyIhR-96" value="" style="rounded=1;whiteSpace=wrap;html=1;fillColor=default;gradientColor=none;dashed=1;" vertex="1" parent="1">
          <mxGeometry x="120" y="245" width="170" height="410" as="geometry" />
        </mxCell>
        <mxCell id="xQaKevciG22setIpyIhR-71" value="" style="endArrow=classic;html=1;rounded=0;fontSize=12;startSize=8;endSize=8;curved=1;exitX=1;exitY=0.5;exitDx=0;exitDy=0;entryX=0.5;entryY=1;entryDx=0;entryDy=0;" edge="1" parent="1" source="xQaKevciG22setIpyIhR-8" target="xQaKevciG22setIpyIhR-14">
          <mxGeometry width="50" height="50" relative="1" as="geometry">
            <mxPoint x="802" y="370" as="sourcePoint" />
            <mxPoint x="812" y="445" as="targetPoint" />
          </mxGeometry>
        </mxCell>
        <mxCell id="xQaKevciG22setIpyIhR-7" value="&lt;font style=&quot;font-size: 17px;&quot;&gt;Web Application&lt;/font&gt;" style="rounded=1;whiteSpace=wrap;html=1;dashed=1;" vertex="1" parent="1">
          <mxGeometry x="340" y="415" width="130" height="70" as="geometry" />
        </mxCell>
        <mxCell id="xQaKevciG22setIpyIhR-8" value="" style="rounded=1;whiteSpace=wrap;html=1;fillColor=default;gradientColor=none;dashed=1;" vertex="1" parent="1">
          <mxGeometry x="492" y="240" width="170" height="410" as="geometry" />
        </mxCell>
        <mxCell id="xQaKevciG22setIpyIhR-9" value="&lt;font style=&quot;font-size: 16px;&quot;&gt;Next.JS&lt;/font&gt;" style="rounded=0;whiteSpace=wrap;html=1;" vertex="1" parent="1">
          <mxGeometry x="517" y="420" width="120" height="60" as="geometry" />
        </mxCell>
        <mxCell id="xQaKevciG22setIpyIhR-10" value="BFF" style="text;html=1;align=center;verticalAlign=middle;whiteSpace=wrap;rounded=0;fontSize=16;" vertex="1" parent="1">
          <mxGeometry x="547" y="270" width="60" height="30" as="geometry" />
        </mxCell>
        <mxCell id="xQaKevciG22setIpyIhR-13" style="edgeStyle=none;curved=1;rounded=0;orthogonalLoop=1;jettySize=auto;html=1;entryX=0;entryY=0.5;entryDx=0;entryDy=0;fontSize=12;startSize=8;endSize=8;" edge="1" parent="1" source="xQaKevciG22setIpyIhR-7" target="xQaKevciG22setIpyIhR-9">
          <mxGeometry relative="1" as="geometry" />
        </mxCell>
        <mxCell id="xQaKevciG22setIpyIhR-27" value="" style="rounded=1;whiteSpace=wrap;html=1;" vertex="1" parent="1">
          <mxGeometry x="942" y="60" width="350" height="100" as="geometry" />
        </mxCell>
        <mxCell id="xQaKevciG22setIpyIhR-28" value="" style="rounded=0;whiteSpace=wrap;html=1;fillColor=#e63946;fontColor=#ffffff;strokeColor=#e63946;" vertex="1" parent="1">
          <mxGeometry x="972" y="100" width="90" height="40" as="geometry" />
        </mxCell>
        <mxCell id="xQaKevciG22setIpyIhR-39" value="Identity Service (STS + Users)" style="text;html=1;align=center;verticalAlign=middle;whiteSpace=wrap;rounded=0;fontSize=16;" vertex="1" parent="1">
          <mxGeometry x="962" y="60" width="230" height="25" as="geometry" />
        </mxCell>
        <mxCell id="xQaKevciG22setIpyIhR-40" value="Postgres Database" style="text;html=1;align=center;verticalAlign=middle;whiteSpace=wrap;rounded=0;fontSize=16;" vertex="1" parent="1">
          <mxGeometry x="1160" y="107.5" width="90" height="25" as="geometry" />
        </mxCell>
        <mxCell id="xQaKevciG22setIpyIhR-41" value="" style="rounded=1;whiteSpace=wrap;html=1;" vertex="1" parent="1">
          <mxGeometry x="942" y="190" width="350" height="100" as="geometry" />
        </mxCell>
        <mxCell id="xQaKevciG22setIpyIhR-42" value="" style="rounded=0;whiteSpace=wrap;html=1;fillColor=#f1faee;fontColor=#ffffff;strokeColor=#f1faee;glass=1;" vertex="1" parent="1">
          <mxGeometry x="972" y="230" width="90" height="40" as="geometry" />
        </mxCell>
        <mxCell id="xQaKevciG22setIpyIhR-44" value="Auction Service" style="text;html=1;align=center;verticalAlign=middle;whiteSpace=wrap;rounded=0;fontSize=16;" vertex="1" parent="1">
          <mxGeometry x="962" y="190" width="230" height="25" as="geometry" />
        </mxCell>
        <mxCell id="xQaKevciG22setIpyIhR-45" value="Postgres Database" style="text;html=1;align=center;verticalAlign=middle;whiteSpace=wrap;rounded=0;fontSize=16;" vertex="1" parent="1">
          <mxGeometry x="1160" y="237.5" width="90" height="25" as="geometry" />
        </mxCell>
        <mxCell id="xQaKevciG22setIpyIhR-46" value="" style="rounded=1;whiteSpace=wrap;html=1;" vertex="1" parent="1">
          <mxGeometry x="942" y="320" width="350" height="100" as="geometry" />
        </mxCell>
        <mxCell id="xQaKevciG22setIpyIhR-47" value="" style="rounded=0;whiteSpace=wrap;html=1;fillColor=#a8dadc;strokeColor=#a8dadc;" vertex="1" parent="1">
          <mxGeometry x="972" y="360" width="90" height="40" as="geometry" />
        </mxCell>
        <mxCell id="xQaKevciG22setIpyIhR-49" value="Search Service" style="text;html=1;align=center;verticalAlign=middle;whiteSpace=wrap;rounded=0;fontSize=16;" vertex="1" parent="1">
          <mxGeometry x="962" y="320" width="230" height="25" as="geometry" />
        </mxCell>
        <mxCell id="xQaKevciG22setIpyIhR-50" value="Mongo Database" style="text;html=1;align=center;verticalAlign=middle;whiteSpace=wrap;rounded=0;fontSize=16;" vertex="1" parent="1">
          <mxGeometry x="1160" y="367.5" width="90" height="25" as="geometry" />
        </mxCell>
        <mxCell id="xQaKevciG22setIpyIhR-102" style="edgeStyle=none;curved=1;rounded=0;orthogonalLoop=1;jettySize=auto;html=1;exitX=0.5;exitY=0;exitDx=0;exitDy=0;fontSize=12;startSize=8;endSize=8;" edge="1" parent="1" source="xQaKevciG22setIpyIhR-14">
          <mxGeometry relative="1" as="geometry">
            <mxPoint x="880" y="445" as="targetPoint" />
          </mxGeometry>
        </mxCell>
        <mxCell id="xQaKevciG22setIpyIhR-14" value="&lt;font style=&quot;font-size: 24px;&quot;&gt;G A T E W A Y&amp;nbsp; &amp;nbsp;S E R V I C E&lt;/font&gt;" style="rounded=0;whiteSpace=wrap;html=1;rotation=90;" vertex="1" parent="1">
          <mxGeometry x="547" y="425" width="510" height="40" as="geometry" />
        </mxCell>
        <mxCell id="xQaKevciG22setIpyIhR-51" value="" style="rounded=1;whiteSpace=wrap;html=1;" vertex="1" parent="1">
          <mxGeometry x="942" y="450" width="350" height="100" as="geometry" />
        </mxCell>
        <mxCell id="xQaKevciG22setIpyIhR-52" value="" style="rounded=0;whiteSpace=wrap;html=1;fillColor=#457b9d;strokeColor=#457b9d;" vertex="1" parent="1">
          <mxGeometry x="972" y="490" width="90" height="40" as="geometry" />
        </mxCell>
        <mxCell id="xQaKevciG22setIpyIhR-54" value="Bidding Service" style="text;html=1;align=center;verticalAlign=middle;whiteSpace=wrap;rounded=0;fontSize=16;" vertex="1" parent="1">
          <mxGeometry x="962" y="450" width="230" height="25" as="geometry" />
        </mxCell>
        <mxCell id="xQaKevciG22setIpyIhR-55" value="Mongo Database" style="text;html=1;align=center;verticalAlign=middle;whiteSpace=wrap;rounded=0;fontSize=16;" vertex="1" parent="1">
          <mxGeometry x="1160" y="497.5" width="90" height="25" as="geometry" />
        </mxCell>
        <mxCell id="xQaKevciG22setIpyIhR-56" value="" style="rounded=1;whiteSpace=wrap;html=1;" vertex="1" parent="1">
          <mxGeometry x="942" y="580" width="350" height="100" as="geometry" />
        </mxCell>
        <mxCell id="xQaKevciG22setIpyIhR-57" value="" style="rounded=0;whiteSpace=wrap;html=1;gradientColor=none;fillColor=#1d3557;strokeColor=#1d3557;" vertex="1" parent="1">
          <mxGeometry x="972" y="620" width="90" height="40" as="geometry" />
        </mxCell>
        <mxCell id="xQaKevciG22setIpyIhR-59" value="Notification Service" style="text;html=1;align=center;verticalAlign=middle;whiteSpace=wrap;rounded=0;fontSize=16;" vertex="1" parent="1">
          <mxGeometry x="962" y="580" width="230" height="25" as="geometry" />
        </mxCell>
        <mxCell id="xQaKevciG22setIpyIhR-60" value="SignalR" style="text;html=1;align=center;verticalAlign=middle;whiteSpace=wrap;rounded=0;fontSize=16;" vertex="1" parent="1">
          <mxGeometry x="1160" y="627.5" width="90" height="25" as="geometry" />
        </mxCell>
        <mxCell id="xQaKevciG22setIpyIhR-61" value="" style="endArrow=none;html=1;rounded=0;fontSize=12;startSize=8;endSize=8;curved=1;" edge="1" parent="1">
          <mxGeometry width="50" height="50" relative="1" as="geometry">
            <mxPoint x="882" y="700" as="sourcePoint" />
            <mxPoint x="882" y="190" as="targetPoint" />
          </mxGeometry>
        </mxCell>
        <mxCell id="xQaKevciG22setIpyIhR-63" value="" style="endArrow=classic;html=1;rounded=0;fontSize=12;startSize=8;endSize=8;curved=1;entryX=0;entryY=0.5;entryDx=0;entryDy=0;" edge="1" parent="1" target="xQaKevciG22setIpyIhR-42">
          <mxGeometry width="50" height="50" relative="1" as="geometry">
            <mxPoint x="882" y="250" as="sourcePoint" />
            <mxPoint x="922" y="320" as="targetPoint" />
          </mxGeometry>
        </mxCell>
        <mxCell id="xQaKevciG22setIpyIhR-64" value="" style="endArrow=classic;html=1;rounded=0;fontSize=12;startSize=8;endSize=8;curved=1;entryX=0;entryY=0.5;entryDx=0;entryDy=0;" edge="1" parent="1" target="xQaKevciG22setIpyIhR-47">
          <mxGeometry width="50" height="50" relative="1" as="geometry">
            <mxPoint x="882" y="380" as="sourcePoint" />
            <mxPoint x="922" y="380" as="targetPoint" />
          </mxGeometry>
        </mxCell>
        <mxCell id="xQaKevciG22setIpyIhR-65" value="" style="endArrow=classic;html=1;rounded=0;fontSize=12;startSize=8;endSize=8;curved=1;entryX=0;entryY=0.5;entryDx=0;entryDy=0;" edge="1" parent="1" target="xQaKevciG22setIpyIhR-52">
          <mxGeometry width="50" height="50" relative="1" as="geometry">
            <mxPoint x="882" y="510" as="sourcePoint" />
            <mxPoint x="942" y="510" as="targetPoint" />
          </mxGeometry>
        </mxCell>
        <mxCell id="xQaKevciG22setIpyIhR-66" value="" style="endArrow=classic;html=1;rounded=0;fontSize=12;startSize=8;endSize=8;curved=1;entryX=0;entryY=0.5;entryDx=0;entryDy=0;" edge="1" parent="1" target="xQaKevciG22setIpyIhR-57">
          <mxGeometry width="50" height="50" relative="1" as="geometry">
            <mxPoint x="882" y="640" as="sourcePoint" />
            <mxPoint x="932" y="650" as="targetPoint" />
          </mxGeometry>
        </mxCell>
        <mxCell id="xQaKevciG22setIpyIhR-68" value="" style="endArrow=none;html=1;rounded=0;fontSize=12;startSize=8;endSize=8;curved=1;" edge="1" parent="1">
          <mxGeometry width="50" height="50" relative="1" as="geometry">
            <mxPoint x="882" y="160" as="sourcePoint" />
            <mxPoint x="882" y="70" as="targetPoint" />
          </mxGeometry>
        </mxCell>
        <mxCell id="xQaKevciG22setIpyIhR-69" value="" style="endArrow=classic;html=1;rounded=0;fontSize=12;startSize=8;endSize=8;curved=1;entryX=0;entryY=0.5;entryDx=0;entryDy=0;" edge="1" parent="1" target="xQaKevciG22setIpyIhR-28">
          <mxGeometry width="50" height="50" relative="1" as="geometry">
            <mxPoint x="882" y="119.5" as="sourcePoint" />
            <mxPoint x="942" y="119.5" as="targetPoint" />
          </mxGeometry>
        </mxCell>
        <mxCell id="xQaKevciG22setIpyIhR-72" value="" style="endArrow=classic;html=1;rounded=0;fontSize=12;startSize=8;endSize=8;curved=1;" edge="1" parent="1">
          <mxGeometry width="50" height="50" relative="1" as="geometry">
            <mxPoint x="802" y="89" as="sourcePoint" />
            <mxPoint x="882" y="88.75" as="targetPoint" />
          </mxGeometry>
        </mxCell>
        <mxCell id="xQaKevciG22setIpyIhR-73" value="" style="endArrow=classic;html=1;rounded=0;fontSize=12;startSize=8;endSize=8;curved=1;" edge="1" parent="1">
          <mxGeometry width="50" height="50" relative="1" as="geometry">
            <mxPoint x="802" y="140" as="sourcePoint" />
            <mxPoint x="882" y="140" as="targetPoint" />
          </mxGeometry>
        </mxCell>
        <mxCell id="xQaKevciG22setIpyIhR-74" style="edgeStyle=none;curved=1;rounded=0;orthogonalLoop=1;jettySize=auto;html=1;entryX=0;entryY=0.5;entryDx=0;entryDy=0;entryPerimeter=0;fontSize=12;startSize=8;endSize=8;" edge="1" parent="1" source="xQaKevciG22setIpyIhR-28">
          <mxGeometry relative="1" as="geometry">
            <mxPoint x="1112" y="120" as="targetPoint" />
          </mxGeometry>
        </mxCell>
        <mxCell id="xQaKevciG22setIpyIhR-75" style="edgeStyle=none;curved=1;rounded=0;orthogonalLoop=1;jettySize=auto;html=1;entryX=0;entryY=0.5;entryDx=0;entryDy=0;entryPerimeter=0;fontSize=12;startSize=8;endSize=8;" edge="1" parent="1" source="xQaKevciG22setIpyIhR-42">
          <mxGeometry relative="1" as="geometry">
            <mxPoint x="1112" y="250" as="targetPoint" />
          </mxGeometry>
        </mxCell>
        <mxCell id="xQaKevciG22setIpyIhR-77" style="edgeStyle=none;curved=1;rounded=0;orthogonalLoop=1;jettySize=auto;html=1;entryX=0;entryY=0.5;entryDx=0;entryDy=0;entryPerimeter=0;fontSize=12;startSize=8;endSize=8;" edge="1" parent="1" source="xQaKevciG22setIpyIhR-47">
          <mxGeometry relative="1" as="geometry">
            <mxPoint x="1112" y="380" as="targetPoint" />
          </mxGeometry>
        </mxCell>
        <mxCell id="xQaKevciG22setIpyIhR-78" style="edgeStyle=none;curved=1;rounded=0;orthogonalLoop=1;jettySize=auto;html=1;entryX=0;entryY=0.5;entryDx=0;entryDy=0;entryPerimeter=0;fontSize=12;startSize=8;endSize=8;" edge="1" parent="1" source="xQaKevciG22setIpyIhR-52">
          <mxGeometry relative="1" as="geometry">
            <mxPoint x="1112" y="510" as="targetPoint" />
          </mxGeometry>
        </mxCell>
        <mxCell id="xQaKevciG22setIpyIhR-81" value="" style="shape=datastore;whiteSpace=wrap;html=1;" vertex="1" parent="1">
          <mxGeometry x="1112" y="480.63" width="35" height="58.75" as="geometry" />
        </mxCell>
        <mxCell id="xQaKevciG22setIpyIhR-82" value="" style="shape=datastore;whiteSpace=wrap;html=1;" vertex="1" parent="1">
          <mxGeometry x="1112" y="350.62" width="35" height="58.75" as="geometry" />
        </mxCell>
        <mxCell id="xQaKevciG22setIpyIhR-83" value="" style="shape=datastore;whiteSpace=wrap;html=1;" vertex="1" parent="1">
          <mxGeometry x="1112" y="220.62" width="35" height="58.75" as="geometry" />
        </mxCell>
        <mxCell id="xQaKevciG22setIpyIhR-84" value="" style="shape=datastore;whiteSpace=wrap;html=1;" vertex="1" parent="1">
          <mxGeometry x="1112" y="90.63" width="35" height="58.75" as="geometry" />
        </mxCell>
        <mxCell id="xQaKevciG22setIpyIhR-90" value="" style="image;sketch=0;aspect=fixed;html=1;points=[];align=center;fontSize=12;image=img/lib/mscae/Docker.svg;" vertex="1" parent="1">
          <mxGeometry x="1500" y="673.6" width="70" height="57.4" as="geometry" />
        </mxCell>
        <mxCell id="xQaKevciG22setIpyIhR-91" value="" style="image;points=[];aspect=fixed;html=1;align=center;shadow=0;dashed=0;image=img/lib/allied_telesis/computer_and_terminals/Personal_Computer.svg;" vertex="1" parent="1">
          <mxGeometry x="182.2" y="420" width="45.6" height="61.800000000000004" as="geometry" />
        </mxCell>
        <mxCell id="xQaKevciG22setIpyIhR-92" value="" style="image;points=[];aspect=fixed;html=1;align=center;shadow=0;dashed=0;image=img/lib/allied_telesis/computer_and_terminals/Laptop.svg;" vertex="1" parent="1">
          <mxGeometry x="184" y="324.9" width="42" height="42.599999999999994" as="geometry" />
        </mxCell>
        <mxCell id="xQaKevciG22setIpyIhR-93" value="" style="image;points=[];aspect=fixed;html=1;align=center;shadow=0;dashed=0;image=img/lib/allied_telesis/computer_and_terminals/Tablet.svg;" vertex="1" parent="1">
          <mxGeometry x="191.5" y="530" width="27" height="57" as="geometry" />
        </mxCell>
        <mxCell id="xQaKevciG22setIpyIhR-95" style="edgeStyle=none;curved=1;rounded=0;orthogonalLoop=1;jettySize=auto;html=1;entryX=0;entryY=0.5;entryDx=0;entryDy=0;entryPerimeter=0;fontSize=12;startSize=8;endSize=8;" edge="1" parent="1">
          <mxGeometry relative="1" as="geometry">
            <mxPoint x="1062" y="639.5" as="sourcePoint" />
            <mxPoint x="1112" y="639.5" as="targetPoint" />
          </mxGeometry>
        </mxCell>
        <mxCell id="xQaKevciG22setIpyIhR-97" style="edgeStyle=none;curved=1;rounded=0;orthogonalLoop=1;jettySize=auto;html=1;entryX=0;entryY=0.5;entryDx=0;entryDy=0;fontSize=12;startSize=8;endSize=8;exitX=1;exitY=0.5;exitDx=0;exitDy=0;" edge="1" parent="1" source="xQaKevciG22setIpyIhR-96" target="xQaKevciG22setIpyIhR-7">
          <mxGeometry relative="1" as="geometry">
            <mxPoint x="273" y="450" as="sourcePoint" />
            <mxPoint x="330" y="450" as="targetPoint" />
          </mxGeometry>
        </mxCell>
        <mxCell id="xQaKevciG22setIpyIhR-100" value="Client" style="text;html=1;align=center;verticalAlign=middle;whiteSpace=wrap;rounded=0;fontSize=16;" vertex="1" parent="1">
          <mxGeometry x="175" y="260" width="60" height="30" as="geometry" />
        </mxCell>
        <mxCell id="xQaKevciG22setIpyIhR-103" value="" style="verticalLabelPosition=bottom;verticalAlign=top;html=1;shape=mxgraph.basic.6_point_star" vertex="1" parent="1">
          <mxGeometry x="1112" y="620" width="48" height="40" as="geometry" />
        </mxCell>
        <mxCell id="xQaKevciG22setIpyIhR-104" value="" style="shape=cylinder3;whiteSpace=wrap;html=1;boundedLbl=1;backgroundOutline=1;size=15;" vertex="1" parent="1">
          <mxGeometry x="1380" y="170" width="100" height="510" as="geometry" />
        </mxCell>
        <mxCell id="xQaKevciG22setIpyIhR-112" value="Publish &amp;amp; Subscribe / Fire &amp;amp; Forget" style="text;html=1;align=center;verticalAlign=middle;whiteSpace=wrap;rounded=0;fontSize=16;rotation=90;" vertex="1" parent="1">
          <mxGeometry x="1250" y="415" width="340" height="30" as="geometry" />
        </mxCell>
        <mxCell id="xQaKevciG22setIpyIhR-193" value="" style="endArrow=classic;startArrow=classic;html=1;rounded=0;fontSize=12;startSize=8;endSize=8;curved=1;exitX=1;exitY=0.5;exitDx=0;exitDy=0;entryX=0;entryY=0.29;entryDx=0;entryDy=0;entryPerimeter=0;" edge="1" parent="1">
          <mxGeometry width="50" height="50" relative="1" as="geometry">
            <mxPoint x="1293" y="370" as="sourcePoint" />
            <mxPoint x="1381" y="370" as="targetPoint" />
          </mxGeometry>
        </mxCell>
        <mxCell id="xQaKevciG22setIpyIhR-194" value="" style="shape=message;html=1;html=1;outlineConnect=0;labelPosition=center;verticalLabelPosition=bottom;align=center;verticalAlign=top;" vertex="1" parent="1">
          <mxGeometry x="1323" y="361.57" width="30" height="16.86" as="geometry" />
        </mxCell>
        <mxCell id="xQaKevciG22setIpyIhR-195" value="" style="endArrow=classic;startArrow=classic;html=1;rounded=0;fontSize=12;startSize=8;endSize=8;curved=1;exitX=1;exitY=0.5;exitDx=0;exitDy=0;entryX=0;entryY=0.29;entryDx=0;entryDy=0;entryPerimeter=0;" edge="1" parent="1">
          <mxGeometry width="50" height="50" relative="1" as="geometry">
            <mxPoint x="1292" y="500" as="sourcePoint" />
            <mxPoint x="1380" y="500" as="targetPoint" />
          </mxGeometry>
        </mxCell>
        <mxCell id="xQaKevciG22setIpyIhR-196" value="" style="shape=message;html=1;html=1;outlineConnect=0;labelPosition=center;verticalLabelPosition=bottom;align=center;verticalAlign=top;" vertex="1" parent="1">
          <mxGeometry x="1322" y="491.57" width="30" height="16.86" as="geometry" />
        </mxCell>
        <mxCell id="xQaKevciG22setIpyIhR-197" value="" style="endArrow=classic;startArrow=classic;html=1;rounded=0;fontSize=12;startSize=8;endSize=8;curved=1;exitX=1;exitY=0.5;exitDx=0;exitDy=0;entryX=0;entryY=0.29;entryDx=0;entryDy=0;entryPerimeter=0;" edge="1" parent="1">
          <mxGeometry width="50" height="50" relative="1" as="geometry">
            <mxPoint x="1292" y="630" as="sourcePoint" />
            <mxPoint x="1380" y="630" as="targetPoint" />
          </mxGeometry>
        </mxCell>
        <mxCell id="xQaKevciG22setIpyIhR-198" value="" style="shape=message;html=1;html=1;outlineConnect=0;labelPosition=center;verticalLabelPosition=bottom;align=center;verticalAlign=top;" vertex="1" parent="1">
          <mxGeometry x="1322" y="621.5699999999999" width="30" height="16.86" as="geometry" />
        </mxCell>
        <mxCell id="xQaKevciG22setIpyIhR-199" value="" style="endArrow=classic;startArrow=classic;html=1;rounded=0;fontSize=12;startSize=8;endSize=8;curved=1;exitX=1;exitY=0.5;exitDx=0;exitDy=0;entryX=0;entryY=0.29;entryDx=0;entryDy=0;entryPerimeter=0;" edge="1" parent="1">
          <mxGeometry width="50" height="50" relative="1" as="geometry">
            <mxPoint x="1292" y="240" as="sourcePoint" />
            <mxPoint x="1380" y="240" as="targetPoint" />
          </mxGeometry>
        </mxCell>
        <mxCell id="xQaKevciG22setIpyIhR-200" value="" style="shape=message;html=1;html=1;outlineConnect=0;labelPosition=center;verticalLabelPosition=bottom;align=center;verticalAlign=top;" vertex="1" parent="1">
          <mxGeometry x="1322" y="231.57" width="30" height="16.86" as="geometry" />
        </mxCell>
        <mxCell id="xQaKevciG22setIpyIhR-201" value="&lt;font style=&quot;font-size: 24px;&quot;&gt;E V E N T&amp;nbsp; &amp;nbsp;B U S&lt;/font&gt;" style="text;html=1;align=center;verticalAlign=middle;whiteSpace=wrap;rounded=0;fontSize=16;rotation=90;" vertex="1" parent="1">
          <mxGeometry x="1213.75" y="411.25" width="482.5" height="30" as="geometry" />
        </mxCell>
      </root>
    </mxGraphModel>
  </diagram>
</mxfile>
